<svg width="40" height="40" viewBox="0 0 40 40" fill="none" xmlns="http://www.w3.org/2000/svg">
<path d="M13.4392 35.3332C26.766 35.3332 34.0551 23.5979 34.0551 13.4212C34.0551 13.0879 34.0551 12.7561 34.034 12.4257C35.452 11.3356 36.6761 9.98571 37.649 8.43941C36.3265 9.06221 34.9238 9.47065 33.4873 9.65108C35 8.68863 36.132 7.17486 36.6728 5.39148C35.2505 6.28853 33.6945 6.92073 32.0718 7.26078C30.9795 6.02613 29.5346 5.20856 27.961 4.93461C26.3873 4.66068 24.7725 4.94561 23.3666 5.74535C21.9606 6.54508 20.8418 7.81503 20.1835 9.35865C19.525 10.9023 19.3635 12.6335 19.724 14.2845C16.8433 14.131 14.0252 13.3354 11.4526 11.9492C8.87995 10.563 6.61035 8.61725 4.79111 6.2383C3.86456 7.93368 3.58076 9.94065 3.99753 11.8506C4.4143 13.7605 5.50028 15.4299 7.03438 16.5187C5.8813 16.4823 4.75336 16.1517 3.74576 15.5547C3.74576 15.5863 3.74576 15.6193 3.74576 15.6523C3.74623 17.4304 4.32531 19.1536 5.38481 20.5294C6.44431 21.9054 7.919 22.8496 9.55875 23.2016C8.49203 23.5107 7.37281 23.5561 6.2871 23.3337C6.7501 24.8639 7.6515 26.2021 8.86525 27.1611C10.079 28.1199 11.5444 28.6517 13.0564 28.6819C10.4907 30.8251 7.32121 31.9886 4.05796 31.9851C3.48146 31.9839 2.90553 31.9467 2.33313 31.8739C5.64665 34.1341 9.50211 35.3328 13.4392 35.3272" fill="white"/>
</svg>
