<svg width="40" height="40" viewBox="0 0 40 40" fill="none" xmlns="http://www.w3.org/2000/svg">
<g clip-path="url(#clip0_21_566)">
<path fill-rule="evenodd" clip-rule="evenodd" d="M20 40C31.0456 40 40 31.0456 40 20C40 8.9543 31.0456 0 20 0C8.9543 0 0 8.9543 0 20C0 31.0456 8.9543 40 20 40ZM29.7284 11.6774C30.0358 11.9848 30.0304 12.6511 29.9614 13.1118L27.6082 28.5C27.4932 29.2492 27.1458 30.1686 26.5452 30.4656C25.8828 30.7932 24.8758 30.5426 24.1828 30.075L17.5708 25.6162C16.8661 25.1408 16.7783 24.1372 17.3896 23.5464L24.1638 17.0007C24.3494 16.8213 24.4512 16.4776 24.297 16.2953C24.1438 16.1139 23.7668 16.136 23.5694 16.2707L15.2098 21.9738C13.8952 22.8706 12.2494 23.1354 10.7198 22.6964L7.7351 21.802C7.24438 21.6492 6.79902 21.3056 6.7843 20.973C6.77 20.6494 7.09958 20.2976 7.65466 20.0322L27.791 11.5935C28.4014 11.3344 29.3396 11.284 29.7284 11.6774Z" fill="white"/>
</g>
<defs>
<clipPath id="clip0_21_566">
<rect width="40" height="40" fill="white"/>
</clipPath>
</defs>
</svg>
