<svg width="40" height="40" viewBox="0 0 40 40" fill="none" xmlns="http://www.w3.org/2000/svg">
<path fill-rule="evenodd" clip-rule="evenodd" d="M37.4705 9.83682C37.7423 8.98865 37.4705 8.37182 36.2666 8.3718H32.2668C31.2573 8.3718 30.7913 8.91155 30.5195 9.48984C30.5195 9.48984 28.4613 14.4246 25.5876 17.6244C24.6556 18.5498 24.2285 18.8583 23.7236 18.8583C23.4518 18.8583 23.1023 18.5498 23.1023 17.7016V9.79825C23.1023 8.79589 22.7916 8.33325 21.9373 8.33325H15.6464C15.0251 8.33325 14.6368 8.79589 14.6368 9.25852C14.6368 10.2223 16.0736 10.4537 16.2289 13.1524V19.0124C16.2289 20.2846 15.9959 20.5159 15.4911 20.5159C14.132 20.5159 10.8312 15.5426 8.85069 9.87537C8.46236 8.75734 8.07404 8.33325 7.06439 8.33325H3.02578C1.86079 8.33325 1.66663 8.87299 1.66663 9.45129C1.66663 10.4922 3.02578 15.7354 7.99638 22.6749C11.2972 27.4169 15.9959 29.9614 20.2286 29.9614C22.7916 29.9614 23.1023 29.3831 23.1023 28.4193V24.8339C23.1023 23.6773 23.3353 23.4846 24.1508 23.4846C24.7333 23.4846 25.7818 23.7929 28.1506 26.0676C30.869 28.7663 31.3348 29.9999 32.8493 29.9999H36.8491C38.0141 29.9999 38.5578 29.4216 38.2471 28.3036C37.8976 27.1856 36.5773 25.5664 34.8686 23.6388C33.9366 22.5593 32.5386 21.3641 32.1115 20.7858C31.529 20.0148 31.6843 19.7063 32.1115 19.0124C32.0726 19.0124 36.9656 12.15 37.4705 9.83682Z" fill="white"/>
</svg>
